<svg width="18" height="18" viewBox="0 0 18 18" fill="none" xmlns="http://www.w3.org/2000/svg">
<g clip-path="url(#clip0_38_542)">
<path d="M9 15.75C12.7279 15.75 15.75 12.7279 15.75 9C15.75 5.27208 12.7279 2.25 9 2.25C5.27208 2.25 2.25 5.27208 2.25 9C2.25 12.7279 5.27208 15.75 9 15.75Z" fill="white"/>
<path d="M10.9393 9.75H5.25C4.83579 9.75 4.5 9.41421 4.5 9C4.5 8.58579 4.83579 8.25 5.25 8.25H10.9393L9.21967 6.53033C8.92678 6.23744 8.92678 5.76256 9.21967 5.46967C9.51256 5.17678 9.98744 5.17678 10.2803 5.46967L13.2803 8.46967C13.5732 8.76256 13.5732 9.23744 13.2803 9.53033L10.2803 12.5303C9.98744 12.8232 9.51256 12.8232 9.21967 12.5303C8.92678 12.2374 8.92678 11.7626 9.21967 11.4697L10.9393 9.75ZM9 17.25C4.44365 17.25 0.75 13.5563 0.75 9C0.75 4.44365 4.44365 0.75 9 0.75C13.5563 0.75 17.25 4.44365 17.25 9C17.25 13.5563 13.5563 17.25 9 17.25ZM9 15.75C12.7279 15.75 15.75 12.7279 15.75 9C15.75 5.27208 12.7279 2.25 9 2.25C5.27208 2.25 2.25 5.27208 2.25 9C2.25 12.7279 5.27208 15.75 9 15.75Z" fill="#0849EE"/>
</g>
<defs>
<clipPath id="clip0_38_542">
<rect width="18" height="18" fill="white"/>
</clipPath>
</defs>
</svg>
