<svg width="16" height="32" viewBox="0 0 32 32" fill="none" xmlns="http://www.w3.org/2000/svg">
<path d="M31.2493 0.750737C31.0116 0.512742 30.7293 0.323939 30.4186 0.195122C30.1078 0.0663046 29.7747 0 29.4383 0C29.1019 0 28.7689 0.0663046 28.4581 0.195122C28.1474 0.323939 27.865 0.512742 27.6273 0.750737L15.9997 12.3783L4.37216 0.750737C3.89185 0.270426 3.24041 0.000590755 2.56115 0.00059076C1.88189 0.000590765 1.23045 0.270426 0.750145 0.750737C0.269835 1.23105 5.06088e-09 1.88249 0 2.56175C-5.06088e-09 3.24101 0.269835 3.89246 0.750145 4.37277L12.3777 16.0004L0.750145 27.628C0.269835 28.1083 0 28.7597 0 29.439C0 30.1183 0.269835 30.7697 0.750145 31.25C1.23045 31.7303 1.88189 32.0002 2.56115 32.0002C3.24041 32.0002 3.89185 31.7303 4.37216 31.25L15.9997 19.6224L27.6273 31.25C28.1076 31.7303 28.7591 32.0002 29.4383 32.0002C30.1176 32.0002 30.769 31.7303 31.2493 31.25C31.7297 30.7697 31.9995 30.1183 31.9995 29.439C31.9995 28.7597 31.7297 28.1083 31.2493 27.628L19.6218 16.0004L31.2493 4.37277C31.4873 4.13504 31.6761 3.85273 31.805 3.54198C31.9338 3.23123 32.0001 2.89814 32.0001 2.56175C32.0001 2.22536 31.9338 1.89227 31.805 1.58153C31.6761 1.27078 31.4873 0.988468 31.2493 0.750737Z" fill="black"/>
</svg>
