<svg width="22" height="21" viewBox="0 0 22 21" fill="none" xmlns="http://www.w3.org/2000/svg">
<path d="M7.57704 10.3579L2.44116 13.7018V7.01392L7.57704 10.3579ZM14.1173 10.3579L19.2532 13.7018V7.01392L14.1173 10.3579ZM13.367 10.8479L11.0707 12.3425C11.003 12.3856 10.9251 12.4081 10.8472 12.4081C10.7693 12.4081 10.6914 12.3856 10.6237 12.3425L8.32744 10.8479L2.7815 14.4584L2.45961 14.6675C2.56008 15.2457 3.06444 15.6885 3.67131 15.6885H18.0231C18.63 15.6885 19.1343 15.2477 19.2348 14.6675L18.9108 14.4584L13.367 10.8479ZM10.8472 11.5081L18.9108 6.25737L19.2348 6.04825C19.1343 5.46803 18.63 5.02722 18.0231 5.02722H3.67131C3.06444 5.02722 2.56008 5.47008 2.45961 6.04825L2.7815 6.25737L10.8472 11.5081Z" fill="#0849EE"/>
</svg>
