<svg width="33" height="32" viewBox="0 0 33 32" fill="none" xmlns="http://www.w3.org/2000/svg">
<path d="M19.5534 23.0534L17.8334 24.7867V17.3334C17.8334 16.9798 17.6929 16.6406 17.4428 16.3906C17.1928 16.1405 16.8537 16.0001 16.5 16.0001C16.1464 16.0001 15.8073 16.1405 15.5572 16.3906C15.3072 16.6406 15.1667 16.9798 15.1667 17.3334V24.7867L13.4467 23.0534C13.3224 22.9291 13.1748 22.8305 13.0124 22.7632C12.8499 22.6959 12.6758 22.6613 12.5 22.6613C12.3242 22.6613 12.1501 22.6959 11.9877 22.7632C11.8253 22.8305 11.6777 22.9291 11.5534 23.0534C11.4291 23.1777 11.3304 23.3253 11.2632 23.4877C11.1959 23.6502 11.1612 23.8243 11.1612 24.0001C11.1612 24.1759 11.1959 24.35 11.2632 24.5124C11.3304 24.6748 11.4291 24.8224 11.5534 24.9467L15.5534 28.9467C15.6802 29.0681 15.8297 29.1633 15.9934 29.2267C16.153 29.2973 16.3255 29.3337 16.5 29.3337C16.6745 29.3337 16.8471 29.2973 17.0067 29.2267C17.1704 29.1633 17.3199 29.0681 17.4467 28.9467L21.4467 24.9467C21.6978 24.6957 21.8388 24.3551 21.8388 24.0001C21.8388 23.645 21.6978 23.3045 21.4467 23.0534C21.1956 22.8023 20.8551 22.6613 20.5 22.6613C20.145 22.6613 19.8044 22.8023 19.5534 23.0534ZM25.06 8.2934C24.2454 6.4214 22.8393 4.86817 21.0575 3.8717C19.2756 2.87523 17.2161 2.49051 15.1947 2.77648C13.1732 3.06245 11.3013 4.00333 9.86571 5.45496C8.43015 6.90659 7.51015 8.78888 7.2467 10.8134C5.97548 11.1178 4.86033 11.8785 4.11302 12.951C3.36571 14.0235 3.03828 15.333 3.19292 16.631C3.34756 17.929 3.9735 19.125 4.95186 19.9919C5.93022 20.8588 7.19288 21.3362 8.50004 21.3334C8.85366 21.3334 9.1928 21.1929 9.44285 20.9429C9.69289 20.6928 9.83337 20.3537 9.83337 20.0001C9.83337 19.6464 9.69289 19.3073 9.44285 19.0573C9.1928 18.8072 8.85366 18.6667 8.50004 18.6667C7.79279 18.6667 7.11452 18.3858 6.61442 17.8857C6.11432 17.3856 5.83337 16.7073 5.83337 16.0001C5.83337 15.2928 6.11432 14.6145 6.61442 14.1144C7.11452 13.6143 7.79279 13.3334 8.50004 13.3334C8.85366 13.3334 9.1928 13.1929 9.44285 12.9429C9.69289 12.6928 9.83337 12.3537 9.83337 12.0001C9.83678 10.4231 10.3991 8.8984 11.4204 7.69684C12.4417 6.49528 13.8559 5.69466 15.4117 5.43723C16.9675 5.17979 18.5642 5.48221 19.9181 6.29074C21.272 7.09928 22.2955 8.36158 22.8067 9.8534C22.8829 10.0825 23.0199 10.2866 23.2031 10.444C23.3863 10.6013 23.6087 10.706 23.8467 10.7467C24.7348 10.9146 25.5399 11.3782 26.1307 12.0621C26.7216 12.746 27.0635 13.6099 27.1006 14.5129C27.1377 15.416 26.8679 16.305 26.3351 17.035C25.8023 17.7651 25.038 18.2933 24.1667 18.5334C23.9969 18.5772 23.8373 18.654 23.6971 18.7594C23.557 18.8648 23.439 18.9969 23.3498 19.1479C23.2607 19.299 23.2021 19.4661 23.1776 19.6398C23.153 19.8134 23.1629 19.9902 23.2067 20.1601C23.2505 20.3299 23.3273 20.4895 23.4327 20.6296C23.5382 20.7698 23.6702 20.8878 23.8212 20.977C23.9723 21.0661 24.1394 21.1246 24.3131 21.1492C24.4867 21.1737 24.6635 21.1638 24.8334 21.1201C26.2366 20.7493 27.4804 19.9307 28.376 18.7887C29.2717 17.6467 29.7702 16.2435 29.7958 14.7924C29.8215 13.3413 29.3729 11.9215 28.5181 10.7485C27.6634 9.57553 26.4492 8.71353 25.06 8.2934Z" fill="white"/>
</svg>
