<svg width="39" height="38" viewBox="0 0 39 38" fill="none" xmlns="http://www.w3.org/2000/svg">
<g clip-path="url(#clip0_38_778)">
<path d="M19.7623 0C9.36941 0 0.941173 8.46118 0.941173 18.8988C0.936927 22.8601 2.17768 26.7226 4.48807 29.9403C6.79846 33.1581 10.0617 35.5684 13.8165 36.8306C14.7576 37.0047 15.1012 36.4212 15.1012 35.92C15.1012 35.4706 15.0847 34.2824 15.0753 32.7059C9.84 33.8471 8.73411 30.1718 8.73411 30.1718C7.88 27.9882 6.6447 27.4071 6.6447 27.4071C4.93411 26.2353 6.77176 26.2588 6.77176 26.2588C8.66117 26.3929 9.65411 28.2071 9.65411 28.2071C11.3341 31.0941 14.0612 30.2612 15.1341 29.7765C15.3035 28.5553 15.7906 27.7224 16.3294 27.2494C12.1506 26.7718 7.75529 25.1506 7.75529 17.9106C7.75529 15.8471 8.48941 14.16 9.69411 12.8376C9.49882 12.36 8.85411 10.4376 9.87764 7.83765C9.87764 7.83765 11.4588 7.32941 15.0541 9.77412C16.59 9.35438 18.1749 9.14075 19.7671 9.13882C21.3593 9.14198 22.9441 9.35641 24.48 9.77647C28.0729 7.33177 29.6518 7.84 29.6518 7.84C30.6776 10.4424 30.0329 12.3624 29.84 12.84C31.0471 14.1624 31.7741 15.8494 31.7741 17.9129C31.7741 25.1718 27.3741 26.7694 23.1812 27.2376C23.8565 27.8212 24.4588 28.9741 24.4588 30.7365C24.4588 33.2635 24.4353 35.3012 24.4353 35.92C24.4353 36.4259 24.7741 37.0141 25.7294 36.8282C29.4806 35.563 32.7397 33.1518 35.0469 29.9348C37.3541 26.7179 38.5928 22.8576 38.5882 18.8988C38.5882 8.46118 30.16 0 19.7623 0Z" fill="black"/>
</g>
<defs>
<clipPath id="clip0_38_778">
<rect width="37.6471" height="37.6471" fill="white" transform="translate(0.941162)"/>
</clipPath>
</defs>
</svg>
