<svg width="36" height="36" viewBox="0 0 36 36" fill="none" xmlns="http://www.w3.org/2000/svg">
<g clip-path="url(#clip0_38_611)">
<path d="M18.0001 0C13.6178 0.00018172 9.37858 1.55968 6.04094 4.39945C2.7033 7.23923 0.485029 11.174 -0.216952 15.4996C-0.918934 19.8253 -0.0588187 24.2596 2.20949 28.0091C4.4778 31.7586 8.00629 34.5787 12.1636 35.9647C13.0864 36.1262 13.4324 35.5725 13.4324 35.088C13.4324 34.6497 13.4093 33.1964 13.4093 31.6508C8.77239 32.5043 7.57279 30.5204 7.20369 29.4823C6.79412 28.4727 6.14486 27.578 5.31202 26.8755C4.66608 26.5294 3.74331 25.6759 5.28893 25.6528C5.87911 25.7169 6.44515 25.9223 6.9391 26.2515C7.43304 26.5808 7.84033 27.0243 8.12645 27.5445C8.37887 27.9979 8.71828 28.3971 9.12524 28.7191C9.5322 29.0412 9.9987 29.2798 10.498 29.4212C10.9973 29.5626 11.5197 29.6042 12.0351 29.5434C12.5505 29.4826 13.0488 29.3207 13.5015 29.067C13.5814 28.1288 13.9996 27.2516 14.6781 26.5987C10.5718 26.1373 6.28092 24.5455 6.28092 17.4864C6.25499 15.6522 6.93181 13.8776 8.17259 12.5266C7.60838 10.9324 7.6744 9.18299 8.35715 7.63592C8.35715 7.63592 9.90272 7.15145 13.4324 9.52758C16.4522 8.69705 19.6402 8.69705 22.66 9.52758C26.1896 7.1284 27.7352 7.63592 27.7352 7.63592C28.4181 9.18297 28.4841 10.9324 27.9198 12.5266C29.1643 13.8753 29.8417 15.6515 29.8115 17.4864C29.8115 24.5686 25.4975 26.1373 21.3912 26.5987C21.8317 27.0451 22.1709 27.5811 22.3858 28.1702C22.6008 28.7593 22.6864 29.3878 22.637 30.0129C22.637 32.4813 22.6139 34.4652 22.6139 35.0881C22.6139 35.5726 22.9599 36.1493 23.8827 35.9647C28.0327 34.5674 31.551 31.7408 33.8096 27.9893C36.0683 24.2379 36.9202 19.8059 36.2134 15.4844C35.5065 11.1629 33.2869 7.2333 29.9507 4.39699C26.6146 1.56067 22.379 0.00227905 18.0001 0Z" fill="black"/>
</g>
<defs>
<clipPath id="clip0_38_611">
<rect width="36" height="36" fill="white"/>
</clipPath>
</defs>
</svg>
