<svg width="255" height="255" viewBox="0 0 255 255" fill="none" xmlns="http://www.w3.org/2000/svg">
<g clip-path="url(#clip0_12_2)">
<path d="M127.5 255C197.916 255 255 197.916 255 127.5C255 57.0837 197.916 0 127.5 0C57.0837 0 0 57.0837 0 127.5C0 197.916 57.0837 255 127.5 255Z" fill="#FFC200"/>
<path fill-rule="evenodd" clip-rule="evenodd" d="M216.985 218.31C192.924 242.026 160.431 255.222 126.647 254.997C92.8625 254.771 60.549 241.144 36.8057 217.109C39.8422 208.712 45.7399 201.653 53.4632 197.171C58.6686 193.322 64.313 190.106 70.2776 187.59C61.2082 156.425 85.8623 141.104 95.2948 136.693C95.2948 151.081 108.767 141.533 125.486 141.715C139.251 141.867 166.472 155.723 166.472 137.444C181.615 141.925 198.12 170.784 186.761 188.514C191.418 190.792 195.818 193.561 199.886 196.775C207.839 201.835 213.86 209.417 216.985 218.31Z" fill="#0848EE"/>
<path fill-rule="evenodd" clip-rule="evenodd" d="M99.1613 159.602L160.724 159.973V174.155L160.696 174.374C160.653 175.016 160.556 175.654 160.407 176.28L160.2 177.687L160.077 177.98C156.091 198.916 138.649 207.008 127.88 212.644C116.533 206.463 100.49 195.327 99.2149 175.624L99.1613 175.381V174.555C99.1525 174.271 99.147 173.986 99.1448 173.701C99.1448 173.85 99.1572 173.99 99.1613 174.139V159.602Z" fill="#F9DCA4"/>
<path opacity="0.11" fill-rule="evenodd" clip-rule="evenodd" d="M160.729 159.342V175.867C160.716 177.399 160.585 178.928 160.337 180.439C160.024 182.31 159.498 184.139 158.769 185.89C137.378 202.044 103.296 188.795 97.8533 161.203L160.729 159.342Z" fill="black"/>
<path fill-rule="evenodd" clip-rule="evenodd" d="M74.7009 104.125C54.3174 109.365 71.6475 134.205 84.4676 134.098C79.2976 124.835 75.9803 114.655 74.7009 104.125ZM180.881 104.125C201.264 109.365 183.934 134.205 171.11 134.094C176.281 124.833 179.6 114.654 180.881 104.125Z" fill="#F9DCA4"/>
<path fill-rule="evenodd" clip-rule="evenodd" d="M126.811 46.878C211.493 46.878 178.492 180.757 126.811 180.757C77.9978 180.757 42.1286 46.878 126.811 46.878Z" fill="#FFE8BE"/>
<path fill-rule="evenodd" clip-rule="evenodd" d="M86.8445 91.2101C87.5669 92.0019 88.1026 92.9456 88.4123 93.9718C88.7219 94.998 88.7976 96.0806 88.6337 97.1399C88.4698 98.1992 88.0706 99.2083 87.4653 100.093C86.86 100.978 86.0641 101.715 85.1362 102.252C79.1532 107.174 78.9345 124.339 78.9345 124.339C76.6238 122.045 76.6775 109.757 71.6682 102.656C66.659 95.555 63.2838 45.8671 91.2966 27.7984C89.5752 29.8231 88.3346 32.2114 87.6679 34.784C87.0011 37.3566 86.9256 40.0468 87.4469 42.6528C87.4469 42.6528 106.906 14.7472 139.19 15.5518C136.63 16.9473 134.394 18.8665 132.625 21.1842C130.857 23.5019 129.597 26.1661 128.928 29.0033C128.928 29.0033 157.151 17.3591 180.67 31.2108C174.556 32.9009 168.772 35.6174 163.567 39.2445C174.989 39.5581 186.026 41.679 194.349 49.0814C192.558 49.6565 190.9 50.5846 189.474 51.8111C188.047 53.0376 186.881 54.5375 186.044 56.2223C185.207 57.907 184.716 59.7424 184.6 61.62C184.485 63.4977 184.746 65.3795 185.37 67.1542C188.902 81.6084 189.232 95.0557 185.812 102.285C182.391 109.514 180.778 104.847 178.636 120.007C178.531 121.031 178.19 122.017 177.638 122.886C177.087 123.755 176.341 124.485 175.459 125.016C175.376 126.114 177.035 109.518 172.756 105.099C168.482 100.684 171.168 95.2579 172.876 92.0477C184.801 69.6547 149.088 59.5084 129.567 59.5331C112.637 59.5537 71.8003 67.2491 86.8445 91.2101Z" fill="#8A5C42"/>
<path fill-rule="evenodd" clip-rule="evenodd" d="M81.6577 202.853C81.7814 203.01 124.645 258.487 175.034 202.028C168.948 218.747 142.697 232.025 127.681 231.984C99.0043 231.901 83.1348 208.877 81.6577 202.853Z" fill="#434955"/>
<path fill-rule="evenodd" clip-rule="evenodd" d="M149.93 253.032C148.238 253.329 146.538 253.589 144.826 253.824V216.948C144.889 216.33 145.191 215.762 145.667 215.364C146.144 214.966 146.757 214.77 147.376 214.819C147.996 214.769 148.61 214.964 149.087 215.362C149.565 215.76 149.867 216.33 149.93 216.948V253.032ZM109.411 253.717C107.7 253.472 105.998 253.197 104.307 252.891V216.948C104.369 216.33 104.671 215.762 105.148 215.364C105.624 214.966 106.238 214.77 106.857 214.819C107.477 214.768 108.092 214.963 108.571 215.361C109.049 215.759 109.352 216.329 109.415 216.948L109.411 253.717Z" fill="#E6E6E6"/>
</g>
<defs>
<clipPath id="clip0_12_2">
<rect width="255" height="255" fill="white"/>
</clipPath>
</defs>
</svg>
