<svg width="38" height="38" viewBox="0 0 38 38" fill="none" xmlns="http://www.w3.org/2000/svg">
<g clip-path="url(#clip0_38_744)">
<mask id="mask0_38_744" style="mask-type:luminance" maskUnits="userSpaceOnUse" x="0" y="0" width="38" height="38">
<path d="M19.1177 37.6471C29.5137 37.6471 37.9412 29.2195 37.9412 18.8235C37.9412 8.42758 29.5137 0 19.1177 0C8.72177 0 0.294189 8.42758 0.294189 18.8235C0.294189 29.2195 8.72177 37.6471 19.1177 37.6471Z" fill="white"/>
</mask>
<g mask="url(#mask0_38_744)">
<path d="M8.38234 76.1768C30.7174 76.1768 48.8235 58.0707 48.8235 35.7356C48.8235 13.4006 30.7174 -4.70557 8.38234 -4.70557C-13.9527 -4.70557 -32.0588 13.4006 -32.0588 35.7356C-32.0588 58.0707 -13.9527 76.1768 8.38234 76.1768Z" fill="url(#paint0_radial_38_744)"/>
</g>
<path d="M24.4118 14.9998C25.2239 14.9998 25.8823 14.3414 25.8823 13.5292C25.8823 12.717 25.2239 12.0586 24.4118 12.0586C23.5996 12.0586 22.9412 12.717 22.9412 13.5292C22.9412 14.3414 23.5996 14.9998 24.4118 14.9998Z" fill="white"/>
<path d="M19.1178 14.1177C18.187 14.1177 17.2772 14.3937 16.5033 14.9108C15.7294 15.4278 15.1263 16.1628 14.7701 17.0227C14.4139 17.8826 14.3207 18.8288 14.5023 19.7416C14.6839 20.6545 15.1321 21.493 15.7902 22.1511C16.4483 22.8092 17.2868 23.2574 18.1997 23.439C19.1125 23.6206 20.0587 23.5274 20.9186 23.1712C21.7785 22.8151 22.5135 22.2119 23.0305 21.438C23.5476 20.6641 23.8236 19.7543 23.8236 18.8236C23.8236 17.5755 23.3278 16.3785 22.4453 15.496C21.5628 14.6135 20.3658 14.1177 19.1178 14.1177ZM19.1178 21.1765C18.6524 21.1765 18.1975 21.0385 17.8105 20.78C17.4236 20.5214 17.122 20.1539 16.9439 19.724C16.7658 19.294 16.7192 18.8209 16.81 18.3645C16.9008 17.9081 17.1249 17.4888 17.454 17.1598C17.783 16.8307 18.2023 16.6066 18.6587 16.5158C19.1151 16.425 19.5882 16.4716 20.0182 16.6497C20.4481 16.8278 20.8156 17.1294 21.0741 17.5163C21.3327 17.9033 21.4707 18.3582 21.4707 18.8236C21.4707 19.4476 21.2228 20.0461 20.7815 20.4873C20.3403 20.9286 19.7418 21.1765 19.1178 21.1765Z" fill="white"/>
<path d="M25.0002 9.41162H13.2355C11.2862 9.41162 9.70605 10.9918 9.70605 12.941V24.7057C9.70605 26.655 11.2862 28.2352 13.2355 28.2352H25.0002C26.9494 28.2352 28.5296 26.655 28.5296 24.7057V12.941C28.5296 10.9918 26.9494 9.41162 25.0002 9.41162Z" stroke="white" stroke-width="2.35294" stroke-miterlimit="10"/>
</g>
<defs>
<radialGradient id="paint0_radial_38_744" cx="0" cy="0" r="1" gradientUnits="userSpaceOnUse" gradientTransform="translate(8.38234 35.7356) scale(40.4412)">
<stop stop-color="#FFD676"/>
<stop offset="0.25" stop-color="#F2A454"/>
<stop offset="0.38" stop-color="#F05C3C"/>
<stop offset="0.7" stop-color="#C22F86"/>
<stop offset="0.96" stop-color="#6666AD"/>
<stop offset="0.99" stop-color="#5C6CB2"/>
</radialGradient>
<clipPath id="clip0_38_744">
<rect width="37.6471" height="37.6471" fill="white" transform="translate(0.294189)"/>
</clipPath>
</defs>
</svg>
