<svg width="39" height="38" viewBox="0 0 39 38" fill="none" xmlns="http://www.w3.org/2000/svg">
<g clip-path="url(#clip0_38_742)">
<path d="M19.4705 0C9.07447 0 0.646973 8.4275 0.646973 18.8235C0.646973 29.2195 9.07447 37.647 19.4705 37.647C29.8665 37.647 38.294 29.2195 38.294 18.8235C38.294 8.4275 29.8663 0 19.4705 0ZM14.4483 27.9238H10.3154V14.5716H14.4483V27.9238ZM12.3622 12.823C11.0124 12.823 9.91821 11.7199 9.91821 10.3593C9.91821 8.99861 11.0126 7.89555 12.3622 7.89555C13.7118 7.89555 14.806 8.99861 14.806 10.3593C14.8061 11.72 13.7119 12.823 12.3622 12.823ZM29.9363 27.9238H25.8235V20.915C25.8235 18.9927 25.0933 17.9196 23.5733 17.9196C21.919 17.9196 21.0547 19.0372 21.0547 20.915V27.9238H17.0908V14.5716H21.0547V16.3699C21.0547 16.3699 22.2471 14.1643 25.0783 14.1643C27.9096 14.1643 29.9364 15.8931 29.9364 19.4694L29.9363 27.9238Z" fill="url(#paint0_linear_38_742)"/>
</g>
<defs>
<linearGradient id="paint0_linear_38_742" x1="6.16024" y1="5.51327" x2="32.7807" y2="32.1337" gradientUnits="userSpaceOnUse">
<stop stop-color="#2489BE"/>
<stop offset="1" stop-color="#0575B3"/>
</linearGradient>
<clipPath id="clip0_38_742">
<rect width="37.6471" height="37.6471" fill="white" transform="translate(0.646973)"/>
</clipPath>
</defs>
</svg>
