<svg width="19" height="19" viewBox="0 0 19 19" fill="none" xmlns="http://www.w3.org/2000/svg">
<g clip-path="url(#clip0_4_42)">
<path d="M5.48422 7.80148C6.07487 8.86693 6.75562 9.88948 7.63945 10.8219C8.52614 11.7601 9.62878 12.6139 11.0561 13.3433C11.1619 13.3948 11.262 13.3948 11.3521 13.359C11.488 13.3075 11.6267 13.1945 11.7625 13.0587C11.8684 12.9528 12 12.7841 12.1372 12.5996C12.6864 11.8774 13.3657 10.9807 14.3254 11.4297C14.3468 11.4398 14.3625 11.4512 14.384 11.4598L17.5847 13.3004C17.5947 13.3061 17.6061 13.3161 17.6147 13.3218C18.0366 13.6121 18.2111 14.0598 18.2154 14.5675C18.2154 15.0838 18.0251 15.6644 17.7463 16.1549C17.3773 16.8028 16.8338 17.2318 16.2074 17.515C15.6111 17.7896 14.9475 17.9369 14.3096 18.0313C13.3085 18.1786 12.3704 18.0842 11.4107 17.7896C10.4726 17.4993 9.52724 17.0202 8.49467 16.3823L8.41888 16.3337C7.9455 16.0377 7.43351 15.7216 6.93153 15.3483C5.09522 13.9611 3.22317 11.9575 2.00326 9.75219C0.980704 7.90159 0.422949 5.90368 0.727569 4.00016C0.896326 2.95615 1.34396 2.00654 2.12482 1.38013C2.80557 0.83096 3.72229 0.53063 4.90931 0.636461C5.04517 0.646472 5.16673 0.72513 5.23109 0.842401L7.28334 4.31193C7.58367 4.70093 7.62086 5.08706 7.45639 5.4732C7.32053 5.78926 7.04594 6.08101 6.67124 6.35274C6.56112 6.44713 6.42955 6.54295 6.29082 6.64306C5.83175 6.97628 5.30975 7.36099 5.48851 7.81292L5.48422 7.80148Z" fill="white"/>
</g>
<defs>
<clipPath id="clip0_4_42">
<rect width="17.5736" height="17.4864" fill="white" transform="translate(0.644775 0.614685)"/>
</clipPath>
</defs>
</svg>
