<svg width="30" height="30" viewBox="0 0 30 30" fill="none" xmlns="http://www.w3.org/2000/svg">
<g clip-path="url(#clip0_38_728)">
<path d="M8.26163 12.2679C9.26993 14.0867 10.432 15.8323 11.9408 17.4241C13.4545 19.0257 15.3368 20.4832 17.7733 21.7283C17.954 21.8162 18.1249 21.8162 18.2787 21.7552C18.5106 21.6673 18.7475 21.4744 18.9794 21.2425C19.1601 21.0618 19.3847 20.7737 19.619 20.4588C20.5565 19.2259 21.7162 17.6951 23.3544 18.4617C23.391 18.4788 23.4179 18.4983 23.4545 18.513L28.9184 21.6551C28.9354 21.6648 28.955 21.6819 28.9696 21.6917C29.6898 22.1873 29.9877 22.9514 29.995 23.8181C29.995 24.6995 29.6703 25.6907 29.1942 26.5281C28.5644 27.6341 27.6366 28.3665 26.5673 28.8499C25.5492 29.3186 24.4164 29.5701 23.3275 29.7312C21.6186 29.9827 20.017 29.8216 18.3788 29.3186C16.7772 28.823 15.1635 28.0052 13.4008 26.9163L13.2714 26.8333C12.4633 26.3279 11.5893 25.7884 10.7323 25.1511C7.59756 22.783 4.40176 19.3626 2.31924 15.5979C0.573639 12.4388 -0.378509 9.02811 0.14151 5.7786C0.429596 3.99637 1.19376 2.37528 2.52676 1.30594C3.68887 0.368443 5.25381 -0.144252 7.28018 0.0364116C7.51211 0.0535015 7.71963 0.187779 7.8295 0.387974L11.3329 6.31082C11.8456 6.97489 11.9091 7.63407 11.6283 8.29325C11.3964 8.8328 10.9276 9.33084 10.288 9.79471C10.1 9.95584 9.87539 10.1194 9.63858 10.2903C8.85489 10.8592 7.96377 11.5159 8.26895 12.2874L8.26163 12.2679Z" fill="#0849EE"/>
</g>
<defs>
<clipPath id="clip0_38_728">
<rect width="30" height="29.8511" fill="white"/>
</clipPath>
</defs>
</svg>
