<svg width="32" height="32" viewBox="0 0 32 32" fill="none" xmlns="http://www.w3.org/2000/svg">
<g clip-path="url(#clip0_36_385)">
<path d="M16 28C22.6274 28 28 22.6274 28 16C28 9.37258 22.6274 4 16 4C9.37258 4 4 9.37258 4 16C4 22.6274 9.37258 28 16 28Z" fill="white"/>
<path d="M19.4478 17.3334H9.33337C8.59699 17.3334 8.00004 16.7365 8.00004 16.0001C8.00004 15.2637 8.59699 14.6667 9.33337 14.6667L19.4478 14.6667L16.3906 11.6096C15.8699 11.0889 15.8699 10.2446 16.3906 9.72394C16.9113 9.20324 17.7555 9.20324 18.2762 9.72394L23.6095 15.0573C24.1302 15.578 24.1302 16.4222 23.6095 16.9429L18.2762 22.2762C17.7555 22.7969 16.9113 22.7969 16.3906 22.2762C15.8699 21.7555 15.8699 20.9113 16.3906 20.3906L19.4478 17.3334ZM16 30.6667C7.89986 30.6667 1.33337 24.1003 1.33337 16.0001C1.33337 7.8999 7.89986 1.33341 16 1.33341C24.1002 1.33341 30.6667 7.8999 30.6667 16.0001C30.6667 24.1003 24.1002 30.6667 16 30.6667ZM16 28.0001C22.6275 28.0001 28 22.6275 28 16.0001C28 9.37266 22.6275 4.00008 16 4.00008C9.37262 4.00008 4.00004 9.37266 4.00004 16.0001C4.00004 22.6275 9.37262 28.0001 16 28.0001Z" fill="#0848EE"/>
</g>
<defs>
<clipPath id="clip0_36_385">
<rect width="32" height="32" fill="white"/>
</clipPath>
</defs>
</svg>
