<svg width="38" height="38" viewBox="0 0 38 38" fill="none" xmlns="http://www.w3.org/2000/svg">
<g clip-path="url(#clip0_38_739)">
<path d="M18.8235 37.6471C29.2195 37.6471 37.6471 29.2195 37.6471 18.8235C37.6471 8.42758 29.2195 0 18.8235 0C8.42758 0 0 8.42758 0 18.8235C0 29.2195 8.42758 37.6471 18.8235 37.6471Z" fill="#2DAAE1"/>
<path d="M30.8929 11.336C30.005 11.73 29.0514 11.9963 28.0487 12.1161C29.072 11.5033 29.856 10.5323 30.2261 9.37659C29.254 9.95393 28.1902 10.3604 27.0808 10.5783C26.178 9.61596 24.8906 9.01514 23.4662 9.01514C20.7323 9.01514 18.5151 11.2315 18.5151 13.967C18.5151 14.3546 18.5588 14.7327 18.6427 15.0957C14.5271 14.8889 10.8785 12.9175 8.43619 9.92199C8.00973 10.6536 7.76564 11.5042 7.76564 12.4117C7.76564 14.1295 8.63995 15.6451 9.96847 16.5329C9.18201 16.5085 8.41281 16.2963 7.72518 15.9138V15.9764C7.72518 18.3758 9.43182 20.3766 11.6973 20.8316C11.2811 20.9456 10.8444 21.0052 10.3926 21.0052C10.0731 21.0052 9.76316 20.9749 9.46039 20.918C10.0905 22.8847 11.9193 24.3162 14.0856 24.3567C12.3909 25.6852 10.2554 26.4771 7.93604 26.4771C7.53656 26.4771 7.14174 26.4533 6.75415 26.4065C8.94592 27.8119 11.5483 28.6324 14.3449 28.6324C23.4528 28.6324 28.4339 21.0869 28.4339 14.5433C28.4339 14.3285 28.4292 14.1153 28.4188 13.9028C29.3893 13.2008 30.2271 12.3317 30.8929 11.336Z" fill="white"/>
</g>
<defs>
<clipPath id="clip0_38_739">
<rect width="37.6471" height="37.6471" fill="white"/>
</clipPath>
</defs>
</svg>
